<?xml version="1.0" encoding="UTF-8" standalone="no"?>
<svg width="21px" height="18px" viewBox="0 0 21 18" version="1.1" xmlns="http://www.w3.org/2000/svg" xmlns:xlink="http://www.w3.org/1999/xlink">
    <!-- Generator: sketchtool 3.8.3 (29802) - http://www.bohemiancoding.com/sketch -->
    <title>61C2537B-7D96-4171-9BDA-E05FC28974CF</title>
    <desc>Created with sketchtool.</desc>
    <defs></defs>
    <g id="one_pager_design" stroke="none" stroke-width="1" fill="none" fill-rule="evenodd">
        <g id="Landing-Page" transform="translate(-928.000000, -4310.000000)" fill="#FFFFFF">
            <path d="M928.863281,4325.28125 L929,4325.08594 C929.325522,4325.125 929.65104,4325.14453 929.976562,4325.14453 C931.877614,4325.14453 933.576815,4324.5586 935.074219,4323.38672 C934.175777,4323.3737 933.381514,4323.10026 932.691406,4322.56641 C931.975257,4322.04557 931.493491,4321.36849 931.246094,4320.53516 C931.460939,4320.58724 931.672525,4320.61328 931.880859,4320.61328 L932.007812,4320.61328 L932.125,4320.61328 C932.444012,4320.61328 932.756509,4320.56771 933.0625,4320.47656 C932.124995,4320.29427 931.337243,4319.82552 930.699219,4319.07031 C930.087237,4318.34114 929.77474,4317.47527 929.761719,4316.47266 L929.78125,4316.45312 C930.35417,4316.75261 930.972653,4316.92187 931.636719,4316.96094 C931.07682,4316.58333 930.627606,4316.10157 930.289062,4315.51562 C929.96354,4314.91666 929.800781,4314.27214 929.800781,4313.58203 C929.800781,4312.83984 929.983071,4312.15625 930.347656,4311.53125 C931.376307,4312.78126 932.619784,4313.79036 934.078125,4314.55859 C935.536466,4315.30078 937.10546,4315.72396 938.785156,4315.82812 C938.707031,4315.5026 938.667969,4315.19662 938.667969,4314.91016 C938.667969,4313.77734 939.0651,4312.81381 939.859375,4312.01953 C940.666671,4311.22526 941.630203,4310.82812 942.75,4310.82812 C943.947923,4310.82812 944.944006,4311.25781 945.738281,4312.11719 C946.662765,4311.94792 947.522131,4311.6224 948.316406,4311.14062 C948.029946,4312.13021 947.430994,4312.89192 946.519531,4313.42578 C947.339848,4313.33463 948.12109,4313.11979 948.863281,4312.78125 C948.329424,4313.61459 947.645837,4314.31771 946.8125,4314.89062 C946.838542,4315.13802 946.845052,4315.3138 946.832031,4315.41797 L946.832031,4315.57422 C946.832031,4316.31641 946.747397,4317.05208 946.578125,4317.78125 C946.434895,4318.57552 946.187502,4319.35026 945.835938,4320.10547 C945.510415,4320.88672 945.106773,4321.61588 944.625,4322.29297 C944.156248,4322.9961 943.589847,4323.63411 942.925781,4324.20703 C942.274736,4324.80599 941.558598,4325.3138 940.777344,4325.73047 C940.022132,4326.17318 939.156255,4326.51172 938.179688,4326.74609 C937.229162,4326.99349 936.220057,4327.11719 935.152344,4327.11719 C932.899728,4327.11719 930.803395,4326.50521 928.863281,4325.28125 L928.863281,4325.28125 Z" id="a"></path>
        </g>
    </g>
</svg>