<?xml version="1.0" encoding="UTF-8" standalone="no"?>
<svg width="10px" height="21px" viewBox="0 0 10 21" version="1.1" xmlns="http://www.w3.org/2000/svg" xmlns:xlink="http://www.w3.org/1999/xlink">
    <!-- Generator: sketchtool 3.8.3 (29802) - http://www.bohemiancoding.com/sketch -->
    <title>3A9AB997-BB12-4E9B-9E62-A0F5C0DDDA0C</title>
    <desc>Created with sketchtool.</desc>
    <defs></defs>
    <g id="one_pager_design" stroke="none" stroke-width="1" fill="none" fill-rule="evenodd">
        <g id="Landing-Page" transform="translate(-972.000000, -4308.000000)" fill="#FFFFFF">
            <path d="M972.117188,4319.46094 L972.136719,4319.42188 L972.136719,4316.04297 L974.617188,4316.04297 L974.617188,4313.15234 C974.617188,4312.57942 974.714843,4312.03255 974.910156,4311.51172 C975.092449,4311.01692 975.378904,4310.5612 975.769531,4310.14453 C976.134116,4309.74088 976.641924,4309.42188 977.292969,4309.1875 C977.904951,4308.95312 978.6276,4308.83594 979.460938,4308.83594 C979.838544,4308.83594 980.235675,4308.84896 980.652344,4308.875 C981.02995,4308.90104 981.322916,4308.92057 981.53125,4308.93359 L981.804688,4308.97266 L981.746094,4312.11719 L979.597656,4312.11719 C979.011716,4312.11719 978.634115,4312.23437 978.464844,4312.46875 C978.26953,4312.70313 978.171875,4313.05143 978.171875,4313.51367 L978.171875,4313.60156 L978.152344,4316.08203 L981.84375,4316.08203 L981.667969,4319.46094 L978.171875,4319.46094 L978.152344,4328.83594 L974.597656,4328.83594 L974.578125,4319.46094 L972.117188,4319.46094 Z" id="b"></path>
        </g>
    </g>
</svg>