<?xml version="1.0" encoding="UTF-8" standalone="no"?>
<svg width="21px" height="18px" viewBox="0 0 21 18" version="1.1" xmlns="http://www.w3.org/2000/svg" xmlns:xlink="http://www.w3.org/1999/xlink">
    <!-- Generator: sketchtool 3.8.3 (29802) - http://www.bohemiancoding.com/sketch -->
    <title>6646999E-0819-4084-A4B2-7029045D1E22</title>
    <desc>Created with sketchtool.</desc>
    <defs></defs>
    <g id="one_pager_design" stroke="none" stroke-width="1" fill="none" fill-rule="evenodd">
        <g id="Landing-Page" transform="translate(-1006.000000, -4310.000000)" fill="#FFFFFF">
            <path d="M1006.86328,4324.34375 C1006.88932,4323.9401 1007.01953,4323.47136 1007.25391,4322.9375 C1007.54037,4322.41666 1007.99609,4321.96094 1008.62109,4321.57031 C1009.38933,4321.15364 1010.15755,4320.8737 1010.92578,4320.73047 C1011.83724,4320.60026 1012.50781,4320.53516 1012.9375,4320.53516 C1012.79427,4320.32682 1012.65104,4320.09245 1012.50781,4319.83203 C1012.3776,4319.59766 1012.30599,4319.3112 1012.29297,4318.97266 C1012.31901,4318.77734 1012.34505,4318.61458 1012.37109,4318.48438 L1012.54688,4318.09375 C1012.24739,4318.11979 1012.00651,4318.13281 1011.82422,4318.13281 C1010.60025,4318.11979 1009.67578,4317.74219 1009.05078,4317 C1008.38672,4316.30989 1008.05469,4315.4961 1008.05469,4314.55859 C1008.05469,4313.45182 1008.52994,4312.44271 1009.48047,4311.53125 C1010.09245,4311.02343 1010.76302,4310.6849 1011.49219,4310.51562 C1012.11719,4310.38542 1012.76172,4310.32031 1013.42578,4310.32031 L1017.97656,4310.30078 L1016.57031,4311.12109 L1015.16406,4311.08203 C1015.25521,4311.17318 1015.29427,4311.17969 1015.28125,4311.10156 C1015.26823,4311.11458 1015.30729,4311.14062 1015.39844,4311.17969 L1015.51562,4311.375 L1015.51562,4311.29688 L1015.65234,4311.49219 C1015.84766,4311.63542 1016.01693,4311.84375 1016.16016,4312.11719 C1016.30339,4312.28646 1016.4401,4312.57291 1016.57031,4312.97656 C1016.67448,4313.25 1016.72656,4313.63411 1016.72656,4314.12891 C1016.72656,4314.88412 1016.55078,4315.53515 1016.19922,4316.08203 C1016.04297,4316.26432 1015.86719,4316.47917 1015.67188,4316.72656 L1015.00781,4317.25391 C1014.90365,4317.39714 1014.77995,4317.55338 1014.63672,4317.72266 C1014.50651,4317.94401 1014.44141,4318.15885 1014.44141,4318.36719 C1014.44141,4318.64063 1014.51302,4318.83594 1014.65625,4318.95312 C1014.77344,4319.14844 1014.89062,4319.27865 1015.00781,4319.34375 L1015.75,4320.00781 C1016.24479,4320.38542 1016.66797,4320.8151 1017.01953,4321.29688 C1017.3711,4321.75261 1017.54688,4322.35156 1017.54688,4323.09375 L1017.54688,4323.17676 L1017.54688,4323.25977 C1017.54688,4324.31446 1017.06511,4325.2552 1016.10156,4326.08203 C1015.11197,4326.95443 1013.66017,4327.40365 1011.74609,4327.42969 C1010.15754,4327.41667 1008.97266,4327.07813 1008.19141,4326.41406 C1007.39713,4325.78906 1007,4325.04688 1007,4324.1875 L1006.86328,4324.34375 L1006.86328,4324.34375 Z M1008.73828,4323.93359 L1008.73828,4324.01172 C1008.73828,4324.7474 1009.10286,4325.37239 1009.83203,4325.88672 C1010.48308,4326.38151 1011.42057,4326.64193 1012.64453,4326.66797 C1013.6862,4326.65495 1014.50651,4326.42058 1015.10547,4325.96484 C1015.6263,4325.49609 1015.89974,4324.91667 1015.92578,4324.22656 C1015.89974,4323.6276 1015.71094,4323.11979 1015.35938,4322.70312 C1014.95573,4322.29948 1014.33724,4321.80469 1013.50391,4321.21875 C1013.29557,4321.19271 1013.13281,4321.1862 1013.01562,4321.19922 L1012.82031,4321.17969 C1012.66406,4321.19271 1012.42318,4321.20573 1012.09766,4321.21875 C1011.64192,4321.29688 1011.16667,4321.40104 1010.67188,4321.53125 L1010.22266,4321.74609 C1010.0013,4321.82422 1009.79297,4321.96094 1009.59766,4322.15625 C1009.36328,4322.32552 1009.1875,4322.55338 1009.07031,4322.83984 C1008.91406,4323.07422 1008.83594,4323.36719 1008.83594,4323.71875 L1008.83594,4323.875 L1008.73828,4323.93359 L1008.73828,4323.93359 Z M1009.83203,4313.60156 L1009.83203,4313.71875 C1009.83203,4314.48047 1010.07291,4315.29427 1010.55469,4316.16016 C1010.77604,4316.55078 1011.07552,4316.89583 1011.45312,4317.19531 C1011.79167,4317.45573 1012.21484,4317.59245 1012.72266,4317.60547 C1013.29558,4317.56641 1013.79687,4317.35156 1014.22656,4316.96094 C1014.38281,4316.66146 1014.50651,4316.36849 1014.59766,4316.08203 C1014.59766,4315.71745 1014.61719,4315.46354 1014.65625,4315.32031 C1014.61719,4314.39583 1014.38932,4313.49089 1013.97266,4312.60547 C1013.71224,4312.13672 1013.43229,4311.77865 1013.13281,4311.53125 C1012.76172,4311.25781 1012.3711,4311.12109 1011.96094,4311.12109 L1011.90234,4311.12109 L1011.81445,4311.12109 C1011.20247,4311.12109 1010.71745,4311.36849 1010.35938,4311.86328 C1010.03385,4312.27344 1009.87109,4312.75846 1009.87109,4313.31836 L1009.87109,4313.44531 L1009.83203,4313.48438 L1009.83203,4313.60156 L1009.83203,4313.60156 Z M1017.89844,4315.69141 L1017.91797,4315.61328 L1017.95703,4314.26562 L1021.70703,4314.22656 L1021.74609,4310.47656 L1022.89844,4310.4375 L1022.9375,4314.28516 L1026.6875,4314.24609 L1026.72656,4315.67188 L1022.89844,4315.65234 L1022.91797,4319.48047 L1021.6875,4319.48047 L1021.70703,4315.69141 L1017.89844,4315.69141 Z" id="c"></path>
        </g>
    </g>
</svg>